<svg xmlns="http://www.w3.org/2000/svg" version="1.1" xmlns:xlink="http://www.w3.org/1999/xlink" xmlns:svgjs="http://svgjs.dev/svgjs" viewBox="0 0 800 800" opacity="0.33" width="800" height="800"><g stroke-width="0.5" stroke="hsla(0, 0%, 59%, 1.00)" fill="none"><rect width="28.571428571428573" height="1" x="-14.285714285714286" y="-0.5" stroke="none" fill="hsla(0, 0%, 59%, 1.00)" rx="0.5"></rect><rect width="1" height="28.571428571428573" x="-0.5" y="-14.285714285714286" stroke="none" fill="hsla(0, 0%, 59%, 1.00)" rx="0.5"></rect><rect width="28.571428571428573" height="1" x="42.85714285714286" y="-0.5" stroke="none" fill="hsla(0, 0%, 59%, 1.00)" rx="0.5"></rect><rect width="1" height="28.571428571428573" x="56.642857142857146" y="-14.285714285714286" stroke="none" fill="hsla(0, 0%, 59%, 1.00)" rx="0.5"></rect><rect width="28.571428571428573" height="1" x="100" y="-0.5" stroke="none" fill="hsla(0, 0%, 59%, 1.00)" rx="0.5"></rect><rect width="1" height="28.571428571428573" x="113.78571428571429" y="-14.285714285714286" stroke="none" fill="hsla(0, 0%, 59%, 1.00)" rx="0.5"></rect><rect width="28.571428571428573" height="1" x="157.14285714285717" y="-0.5" stroke="none" fill="hsla(0, 0%, 59%, 1.00)" rx="0.5"></rect><rect width="1" height="28.571428571428573" x="170.92857142857144" y="-14.285714285714286" stroke="none" fill="hsla(0, 0%, 59%, 1.00)" rx="0.5"></rect><rect width="28.571428571428573" height="1" x="214.2857142857143" y="-0.5" stroke="none" fill="hsla(0, 0%, 59%, 1.00)" rx="0.5"></rect><rect width="1" height="28.571428571428573" x="228.07142857142858" y="-14.285714285714286" stroke="none" fill="hsla(0, 0%, 59%, 1.00)" rx="0.5"></rect><rect width="28.571428571428573" height="1" x="271.42857142857144" y="-0.5" stroke="none" fill="hsla(0, 0%, 59%, 1.00)" rx="0.5"></rect><rect width="1" height="28.571428571428573" x="285.2142857142857" y="-14.285714285714286" stroke="none" fill="hsla(0, 0%, 59%, 1.00)" rx="0.5"></rect><rect width="28.571428571428573" height="1" x="328.5714285714286" y="-0.5" stroke="none" fill="hsla(0, 0%, 59%, 1.00)" rx="0.5"></rect><rect width="1" height="28.571428571428573" x="342.3571428571429" y="-14.285714285714286" stroke="none" fill="hsla(0, 0%, 59%, 1.00)" rx="0.5"></rect><rect width="28.571428571428573" height="1" x="385.7142857142858" y="-0.5" stroke="none" fill="hsla(0, 0%, 59%, 1.00)" rx="0.5"></rect><rect width="1" height="28.571428571428573" x="399.50000000000006" y="-14.285714285714286" stroke="none" fill="hsla(0, 0%, 59%, 1.00)" rx="0.5"></rect><rect width="28.571428571428573" height="1" x="442.85714285714295" y="-0.5" stroke="none" fill="hsla(0, 0%, 59%, 1.00)" rx="0.5"></rect><rect width="1" height="28.571428571428573" x="456.6428571428572" y="-14.285714285714286" stroke="none" fill="hsla(0, 0%, 59%, 1.00)" rx="0.5"></rect><rect width="28.571428571428573" height="1" x="500.00000000000006" y="-0.5" stroke="none" fill="hsla(0, 0%, 59%, 1.00)" rx="0.5"></rect><rect width="1" height="28.571428571428573" x="513.7857142857143" y="-14.285714285714286" stroke="none" fill="hsla(0, 0%, 59%, 1.00)" rx="0.5"></rect><rect width="28.571428571428573" height="1" x="557.1428571428571" y="-0.5" stroke="none" fill="hsla(0, 0%, 59%, 1.00)" rx="0.5"></rect><rect width="1" height="28.571428571428573" x="570.9285714285714" y="-14.285714285714286" stroke="none" fill="hsla(0, 0%, 59%, 1.00)" rx="0.5"></rect><rect width="28.571428571428573" height="1" x="614.2857142857142" y="-0.5" stroke="none" fill="hsla(0, 0%, 59%, 1.00)" rx="0.5"></rect><rect width="1" height="28.571428571428573" x="628.0714285714286" y="-14.285714285714286" stroke="none" fill="hsla(0, 0%, 59%, 1.00)" rx="0.5"></rect><rect width="28.571428571428573" height="1" x="671.4285714285713" y="-0.5" stroke="none" fill="hsla(0, 0%, 59%, 1.00)" rx="0.5"></rect><rect width="1" height="28.571428571428573" x="685.2142857142857" y="-14.285714285714286" stroke="none" fill="hsla(0, 0%, 59%, 1.00)" rx="0.5"></rect><rect width="28.571428571428573" height="1" x="728.5714285714284" y="-0.5" stroke="none" fill="hsla(0, 0%, 59%, 1.00)" rx="0.5"></rect><rect width="1" height="28.571428571428573" x="742.3571428571428" y="-14.285714285714286" stroke="none" fill="hsla(0, 0%, 59%, 1.00)" rx="0.5"></rect><rect width="28.571428571428573" height="1" x="785.7142857142856" y="-0.5" stroke="none" fill="hsla(0, 0%, 59%, 1.00)" rx="0.5"></rect><rect width="1" height="28.571428571428573" x="799.4999999999999" y="-14.285714285714286" stroke="none" fill="hsla(0, 0%, 59%, 1.00)" rx="0.5"></rect><rect width="28.571428571428573" height="1" x="-14.285714285714286" y="56.642857142857146" stroke="none" fill="hsla(0, 0%, 59%, 1.00)" rx="0.5"></rect><rect width="1" height="28.571428571428573" x="-0.5" y="42.85714285714286" stroke="none" fill="hsla(0, 0%, 59%, 1.00)" rx="0.5"></rect><rect width="28.571428571428573" height="1" x="42.85714285714286" y="56.642857142857146" stroke="none" fill="hsla(0, 0%, 59%, 1.00)" rx="0.5"></rect><rect width="1" height="28.571428571428573" x="56.642857142857146" y="42.85714285714286" stroke="none" fill="hsla(0, 0%, 59%, 1.00)" rx="0.5"></rect><rect width="28.571428571428573" height="1" x="100" y="56.642857142857146" stroke="none" fill="hsla(0, 0%, 59%, 1.00)" rx="0.5"></rect><rect width="1" height="28.571428571428573" x="113.78571428571429" y="42.85714285714286" stroke="none" fill="hsla(0, 0%, 59%, 1.00)" rx="0.5"></rect><rect width="28.571428571428573" height="1" x="157.14285714285717" y="56.642857142857146" stroke="none" fill="hsla(0, 0%, 59%, 1.00)" rx="0.5"></rect><rect width="1" height="28.571428571428573" x="170.92857142857144" y="42.85714285714286" stroke="none" fill="hsla(0, 0%, 59%, 1.00)" rx="0.5"></rect><rect width="28.571428571428573" height="1" x="214.2857142857143" y="56.642857142857146" stroke="none" fill="hsla(0, 0%, 59%, 1.00)" rx="0.5"></rect><rect width="1" height="28.571428571428573" x="228.07142857142858" y="42.85714285714286" stroke="none" fill="hsla(0, 0%, 59%, 1.00)" rx="0.5"></rect><rect width="28.571428571428573" height="1" x="271.42857142857144" y="56.642857142857146" stroke="none" fill="hsla(0, 0%, 59%, 1.00)" rx="0.5"></rect><rect width="1" height="28.571428571428573" x="285.2142857142857" y="42.85714285714286" stroke="none" fill="hsla(0, 0%, 59%, 1.00)" rx="0.5"></rect><rect width="28.571428571428573" height="1" x="328.5714285714286" y="56.642857142857146" stroke="none" fill="hsla(0, 0%, 59%, 1.00)" rx="0.5"></rect><rect width="1" height="28.571428571428573" x="342.3571428571429" y="42.85714285714286" stroke="none" fill="hsla(0, 0%, 59%, 1.00)" rx="0.5"></rect><rect width="28.571428571428573" height="1" x="385.7142857142858" y="56.642857142857146" stroke="none" fill="hsla(0, 0%, 59%, 1.00)" rx="0.5"></rect><rect width="1" height="28.571428571428573" x="399.50000000000006" y="42.85714285714286" stroke="none" fill="hsla(0, 0%, 59%, 1.00)" rx="0.5"></rect><rect width="28.571428571428573" height="1" x="442.85714285714295" y="56.642857142857146" stroke="none" fill="hsla(0, 0%, 59%, 1.00)" rx="0.5"></rect><rect width="1" height="28.571428571428573" x="456.6428571428572" y="42.85714285714286" stroke="none" fill="hsla(0, 0%, 59%, 1.00)" rx="0.5"></rect><rect width="28.571428571428573" height="1" x="500.00000000000006" y="56.642857142857146" stroke="none" fill="hsla(0, 0%, 59%, 1.00)" rx="0.5"></rect><rect width="1" height="28.571428571428573" x="513.7857142857143" y="42.85714285714286" stroke="none" fill="hsla(0, 0%, 59%, 1.00)" rx="0.5"></rect><rect width="28.571428571428573" height="1" x="557.1428571428571" y="56.642857142857146" stroke="none" fill="hsla(0, 0%, 59%, 1.00)" rx="0.5"></rect><rect width="1" height="28.571428571428573" x="570.9285714285714" y="42.85714285714286" stroke="none" fill="hsla(0, 0%, 59%, 1.00)" rx="0.5"></rect><rect width="28.571428571428573" height="1" x="614.2857142857142" y="56.642857142857146" stroke="none" fill="hsla(0, 0%, 59%, 1.00)" rx="0.5"></rect><rect width="1" height="28.571428571428573" x="628.0714285714286" y="42.85714285714286" stroke="none" fill="hsla(0, 0%, 59%, 1.00)" rx="0.5"></rect><rect width="28.571428571428573" height="1" x="671.4285714285713" y="56.642857142857146" stroke="none" fill="hsla(0, 0%, 59%, 1.00)" rx="0.5"></rect><rect width="1" height="28.571428571428573" x="685.2142857142857" y="42.85714285714286" stroke="none" fill="hsla(0, 0%, 59%, 1.00)" rx="0.5"></rect><rect width="28.571428571428573" height="1" x="728.5714285714284" y="56.642857142857146" stroke="none" fill="hsla(0, 0%, 59%, 1.00)" rx="0.5"></rect><rect width="1" height="28.571428571428573" x="742.3571428571428" y="42.85714285714286" stroke="none" fill="hsla(0, 0%, 59%, 1.00)" rx="0.5"></rect><rect width="28.571428571428573" height="1" x="785.7142857142856" y="56.642857142857146" stroke="none" fill="hsla(0, 0%, 59%, 1.00)" rx="0.5"></rect><rect width="1" height="28.571428571428573" x="799.4999999999999" y="42.85714285714286" stroke="none" fill="hsla(0, 0%, 59%, 1.00)" rx="0.5"></rect><rect width="28.571428571428573" height="1" x="-14.285714285714286" y="113.78571428571429" stroke="none" fill="hsla(0, 0%, 59%, 1.00)" rx="0.5"></rect><rect width="1" height="28.571428571428573" x="-0.5" y="100" stroke="none" fill="hsla(0, 0%, 59%, 1.00)" rx="0.5"></rect><rect width="28.571428571428573" height="1" x="42.85714285714286" y="113.78571428571429" stroke="none" fill="hsla(0, 0%, 59%, 1.00)" rx="0.5"></rect><rect width="1" height="28.571428571428573" x="56.642857142857146" y="100" stroke="none" fill="hsla(0, 0%, 59%, 1.00)" rx="0.5"></rect><rect width="28.571428571428573" height="1" x="100" y="113.78571428571429" stroke="none" fill="hsla(0, 0%, 59%, 1.00)" rx="0.5"></rect><rect width="1" height="28.571428571428573" x="113.78571428571429" y="100" stroke="none" fill="hsla(0, 0%, 59%, 1.00)" rx="0.5"></rect><rect width="28.571428571428573" height="1" x="157.14285714285717" y="113.78571428571429" stroke="none" fill="hsla(0, 0%, 59%, 1.00)" rx="0.5"></rect><rect width="1" height="28.571428571428573" x="170.92857142857144" y="100" stroke="none" fill="hsla(0, 0%, 59%, 1.00)" rx="0.5"></rect><rect width="28.571428571428573" height="1" x="214.2857142857143" y="113.78571428571429" stroke="none" fill="hsla(0, 0%, 59%, 1.00)" rx="0.5"></rect><rect width="1" height="28.571428571428573" x="228.07142857142858" y="100" stroke="none" fill="hsla(0, 0%, 59%, 1.00)" rx="0.5"></rect><rect width="28.571428571428573" height="1" x="271.42857142857144" y="113.78571428571429" stroke="none" fill="hsla(0, 0%, 59%, 1.00)" rx="0.5"></rect><rect width="1" height="28.571428571428573" x="285.2142857142857" y="100" stroke="none" fill="hsla(0, 0%, 59%, 1.00)" rx="0.5"></rect><rect width="28.571428571428573" height="1" x="328.5714285714286" y="113.78571428571429" stroke="none" fill="hsla(0, 0%, 59%, 1.00)" rx="0.5"></rect><rect width="1" height="28.571428571428573" x="342.3571428571429" y="100" stroke="none" fill="hsla(0, 0%, 59%, 1.00)" rx="0.5"></rect><rect width="28.571428571428573" height="1" x="385.7142857142858" y="113.78571428571429" stroke="none" fill="hsla(0, 0%, 59%, 1.00)" rx="0.5"></rect><rect width="1" height="28.571428571428573" x="399.50000000000006" y="100" stroke="none" fill="hsla(0, 0%, 59%, 1.00)" rx="0.5"></rect><rect width="28.571428571428573" height="1" x="442.85714285714295" y="113.78571428571429" stroke="none" fill="hsla(0, 0%, 59%, 1.00)" rx="0.5"></rect><rect width="1" height="28.571428571428573" x="456.6428571428572" y="100" stroke="none" fill="hsla(0, 0%, 59%, 1.00)" rx="0.5"></rect><rect width="28.571428571428573" height="1" x="500.00000000000006" y="113.78571428571429" stroke="none" fill="hsla(0, 0%, 59%, 1.00)" rx="0.5"></rect><rect width="1" height="28.571428571428573" x="513.7857142857143" y="100" stroke="none" fill="hsla(0, 0%, 59%, 1.00)" rx="0.5"></rect><rect width="28.571428571428573" height="1" x="557.1428571428571" y="113.78571428571429" stroke="none" fill="hsla(0, 0%, 59%, 1.00)" rx="0.5"></rect><rect width="1" height="28.571428571428573" x="570.9285714285714" y="100" stroke="none" fill="hsla(0, 0%, 59%, 1.00)" rx="0.5"></rect><rect width="28.571428571428573" height="1" x="614.2857142857142" y="113.78571428571429" stroke="none" fill="hsla(0, 0%, 59%, 1.00)" rx="0.5"></rect><rect width="1" height="28.571428571428573" x="628.0714285714286" y="100" stroke="none" fill="hsla(0, 0%, 59%, 1.00)" rx="0.5"></rect><rect width="28.571428571428573" height="1" x="671.4285714285713" y="113.78571428571429" stroke="none" fill="hsla(0, 0%, 59%, 1.00)" rx="0.5"></rect><rect width="1" height="28.571428571428573" x="685.2142857142857" y="100" stroke="none" fill="hsla(0, 0%, 59%, 1.00)" rx="0.5"></rect><rect width="28.571428571428573" height="1" x="728.5714285714284" y="113.78571428571429" stroke="none" fill="hsla(0, 0%, 59%, 1.00)" rx="0.5"></rect><rect width="1" height="28.571428571428573" x="742.3571428571428" y="100" stroke="none" fill="hsla(0, 0%, 59%, 1.00)" rx="0.5"></rect><rect width="28.571428571428573" height="1" x="785.7142857142856" y="113.78571428571429" stroke="none" fill="hsla(0, 0%, 59%, 1.00)" rx="0.5"></rect><rect width="1" height="28.571428571428573" x="799.4999999999999" y="100" stroke="none" fill="hsla(0, 0%, 59%, 1.00)" rx="0.5"></rect><rect width="28.571428571428573" height="1" x="-14.285714285714286" y="170.92857142857144" stroke="none" fill="hsla(0, 0%, 59%, 1.00)" rx="0.5"></rect><rect width="1" height="28.571428571428573" x="-0.5" y="157.14285714285717" stroke="none" fill="hsla(0, 0%, 59%, 1.00)" rx="0.5"></rect><rect width="28.571428571428573" height="1" x="42.85714285714286" y="170.92857142857144" stroke="none" fill="hsla(0, 0%, 59%, 1.00)" rx="0.5"></rect><rect width="1" height="28.571428571428573" x="56.642857142857146" y="157.14285714285717" stroke="none" fill="hsla(0, 0%, 59%, 1.00)" rx="0.5"></rect><rect width="28.571428571428573" height="1" x="100" y="170.92857142857144" stroke="none" fill="hsla(0, 0%, 59%, 1.00)" rx="0.5"></rect><rect width="1" height="28.571428571428573" x="113.78571428571429" y="157.14285714285717" stroke="none" fill="hsla(0, 0%, 59%, 1.00)" rx="0.5"></rect><rect width="28.571428571428573" height="1" x="157.14285714285717" y="170.92857142857144" stroke="none" fill="hsla(0, 0%, 59%, 1.00)" rx="0.5"></rect><rect width="1" height="28.571428571428573" x="170.92857142857144" y="157.14285714285717" stroke="none" fill="hsla(0, 0%, 59%, 1.00)" rx="0.5"></rect><rect width="28.571428571428573" height="1" x="214.2857142857143" y="170.92857142857144" stroke="none" fill="hsla(0, 0%, 59%, 1.00)" rx="0.5"></rect><rect width="1" height="28.571428571428573" x="228.07142857142858" y="157.14285714285717" stroke="none" fill="hsla(0, 0%, 59%, 1.00)" rx="0.5"></rect><rect width="28.571428571428573" height="1" x="271.42857142857144" y="170.92857142857144" stroke="none" fill="hsla(0, 0%, 59%, 1.00)" rx="0.5"></rect><rect width="1" height="28.571428571428573" x="285.2142857142857" y="157.14285714285717" stroke="none" fill="hsla(0, 0%, 59%, 1.00)" rx="0.5"></rect><rect width="28.571428571428573" height="1" x="328.5714285714286" y="170.92857142857144" stroke="none" fill="hsla(0, 0%, 59%, 1.00)" rx="0.5"></rect><rect width="1" height="28.571428571428573" x="342.3571428571429" y="157.14285714285717" stroke="none" fill="hsla(0, 0%, 59%, 1.00)" rx="0.5"></rect><rect width="28.571428571428573" height="1" x="385.7142857142858" y="170.92857142857144" stroke="none" fill="hsla(0, 0%, 59%, 1.00)" rx="0.5"></rect><rect width="1" height="28.571428571428573" x="399.50000000000006" y="157.14285714285717" stroke="none" fill="hsla(0, 0%, 59%, 1.00)" rx="0.5"></rect><rect width="28.571428571428573" height="1" x="442.85714285714295" y="170.92857142857144" stroke="none" fill="hsla(0, 0%, 59%, 1.00)" rx="0.5"></rect><rect width="1" height="28.571428571428573" x="456.6428571428572" y="157.14285714285717" stroke="none" fill="hsla(0, 0%, 59%, 1.00)" rx="0.5"></rect><rect width="28.571428571428573" height="1" x="500.00000000000006" y="170.92857142857144" stroke="none" fill="hsla(0, 0%, 59%, 1.00)" rx="0.5"></rect><rect width="1" height="28.571428571428573" x="513.7857142857143" y="157.14285714285717" stroke="none" fill="hsla(0, 0%, 59%, 1.00)" rx="0.5"></rect><rect width="28.571428571428573" height="1" x="557.1428571428571" y="170.92857142857144" stroke="none" fill="hsla(0, 0%, 59%, 1.00)" rx="0.5"></rect><rect width="1" height="28.571428571428573" x="570.9285714285714" y="157.14285714285717" stroke="none" fill="hsla(0, 0%, 59%, 1.00)" rx="0.5"></rect><rect width="28.571428571428573" height="1" x="614.2857142857142" y="170.92857142857144" stroke="none" fill="hsla(0, 0%, 59%, 1.00)" rx="0.5"></rect><rect width="1" height="28.571428571428573" x="628.0714285714286" y="157.14285714285717" stroke="none" fill="hsla(0, 0%, 59%, 1.00)" rx="0.5"></rect><rect width="28.571428571428573" height="1" x="671.4285714285713" y="170.92857142857144" stroke="none" fill="hsla(0, 0%, 59%, 1.00)" rx="0.5"></rect><rect width="1" height="28.571428571428573" x="685.2142857142857" y="157.14285714285717" stroke="none" fill="hsla(0, 0%, 59%, 1.00)" rx="0.5"></rect><rect width="28.571428571428573" height="1" x="728.5714285714284" y="170.92857142857144" stroke="none" fill="hsla(0, 0%, 59%, 1.00)" rx="0.5"></rect><rect width="1" height="28.571428571428573" x="742.3571428571428" y="157.14285714285717" stroke="none" fill="hsla(0, 0%, 59%, 1.00)" rx="0.5"></rect><rect width="28.571428571428573" height="1" x="785.7142857142856" y="170.92857142857144" stroke="none" fill="hsla(0, 0%, 59%, 1.00)" rx="0.5"></rect><rect width="1" height="28.571428571428573" x="799.4999999999999" y="157.14285714285717" stroke="none" fill="hsla(0, 0%, 59%, 1.00)" rx="0.5"></rect><rect width="28.571428571428573" height="1" x="-14.285714285714286" y="228.07142857142858" stroke="none" fill="hsla(0, 0%, 59%, 1.00)" rx="0.5"></rect><rect width="1" height="28.571428571428573" x="-0.5" y="214.2857142857143" stroke="none" fill="hsla(0, 0%, 59%, 1.00)" rx="0.5"></rect><rect width="28.571428571428573" height="1" x="42.85714285714286" y="228.07142857142858" stroke="none" fill="hsla(0, 0%, 59%, 1.00)" rx="0.5"></rect><rect width="1" height="28.571428571428573" x="56.642857142857146" y="214.2857142857143" stroke="none" fill="hsla(0, 0%, 59%, 1.00)" rx="0.5"></rect><rect width="28.571428571428573" height="1" x="100" y="228.07142857142858" stroke="none" fill="hsla(0, 0%, 59%, 1.00)" rx="0.5"></rect><rect width="1" height="28.571428571428573" x="113.78571428571429" y="214.2857142857143" stroke="none" fill="hsla(0, 0%, 59%, 1.00)" rx="0.5"></rect><rect width="28.571428571428573" height="1" x="157.14285714285717" y="228.07142857142858" stroke="none" fill="hsla(0, 0%, 59%, 1.00)" rx="0.5"></rect><rect width="1" height="28.571428571428573" x="170.92857142857144" y="214.2857142857143" stroke="none" fill="hsla(0, 0%, 59%, 1.00)" rx="0.5"></rect><rect width="28.571428571428573" height="1" x="214.2857142857143" y="228.07142857142858" stroke="none" fill="hsla(0, 0%, 59%, 1.00)" rx="0.5"></rect><rect width="1" height="28.571428571428573" x="228.07142857142858" y="214.2857142857143" stroke="none" fill="hsla(0, 0%, 59%, 1.00)" rx="0.5"></rect><rect width="28.571428571428573" height="1" x="271.42857142857144" y="228.07142857142858" stroke="none" fill="hsla(0, 0%, 59%, 1.00)" rx="0.5"></rect><rect width="1" height="28.571428571428573" x="285.2142857142857" y="214.2857142857143" stroke="none" fill="hsla(0, 0%, 59%, 1.00)" rx="0.5"></rect><rect width="28.571428571428573" height="1" x="328.5714285714286" y="228.07142857142858" stroke="none" fill="hsla(0, 0%, 59%, 1.00)" rx="0.5"></rect><rect width="1" height="28.571428571428573" x="342.3571428571429" y="214.2857142857143" stroke="none" fill="hsla(0, 0%, 59%, 1.00)" rx="0.5"></rect><rect width="28.571428571428573" height="1" x="385.7142857142858" y="228.07142857142858" stroke="none" fill="hsla(0, 0%, 59%, 1.00)" rx="0.5"></rect><rect width="1" height="28.571428571428573" x="399.50000000000006" y="214.2857142857143" stroke="none" fill="hsla(0, 0%, 59%, 1.00)" rx="0.5"></rect><rect width="28.571428571428573" height="1" x="442.85714285714295" y="228.07142857142858" stroke="none" fill="hsla(0, 0%, 59%, 1.00)" rx="0.5"></rect><rect width="1" height="28.571428571428573" x="456.6428571428572" y="214.2857142857143" stroke="none" fill="hsla(0, 0%, 59%, 1.00)" rx="0.5"></rect><rect width="28.571428571428573" height="1" x="500.00000000000006" y="228.07142857142858" stroke="none" fill="hsla(0, 0%, 59%, 1.00)" rx="0.5"></rect><rect width="1" height="28.571428571428573" x="513.7857142857143" y="214.2857142857143" stroke="none" fill="hsla(0, 0%, 59%, 1.00)" rx="0.5"></rect><rect width="28.571428571428573" height="1" x="557.1428571428571" y="228.07142857142858" stroke="none" fill="hsla(0, 0%, 59%, 1.00)" rx="0.5"></rect><rect width="1" height="28.571428571428573" x="570.9285714285714" y="214.2857142857143" stroke="none" fill="hsla(0, 0%, 59%, 1.00)" rx="0.5"></rect><rect width="28.571428571428573" height="1" x="614.2857142857142" y="228.07142857142858" stroke="none" fill="hsla(0, 0%, 59%, 1.00)" rx="0.5"></rect><rect width="1" height="28.571428571428573" x="628.0714285714286" y="214.2857142857143" stroke="none" fill="hsla(0, 0%, 59%, 1.00)" rx="0.5"></rect><rect width="28.571428571428573" height="1" x="671.4285714285713" y="228.07142857142858" stroke="none" fill="hsla(0, 0%, 59%, 1.00)" rx="0.5"></rect><rect width="1" height="28.571428571428573" x="685.2142857142857" y="214.2857142857143" stroke="none" fill="hsla(0, 0%, 59%, 1.00)" rx="0.5"></rect><rect width="28.571428571428573" height="1" x="728.5714285714284" y="228.07142857142858" stroke="none" fill="hsla(0, 0%, 59%, 1.00)" rx="0.5"></rect><rect width="1" height="28.571428571428573" x="742.3571428571428" y="214.2857142857143" stroke="none" fill="hsla(0, 0%, 59%, 1.00)" rx="0.5"></rect><rect width="28.571428571428573" height="1" x="785.7142857142856" y="228.07142857142858" stroke="none" fill="hsla(0, 0%, 59%, 1.00)" rx="0.5"></rect><rect width="1" height="28.571428571428573" x="799.4999999999999" y="214.2857142857143" stroke="none" fill="hsla(0, 0%, 59%, 1.00)" rx="0.5"></rect><rect width="28.571428571428573" height="1" x="-14.285714285714286" y="285.2142857142857" stroke="none" fill="hsla(0, 0%, 59%, 1.00)" rx="0.5"></rect><rect width="1" height="28.571428571428573" x="-0.5" y="271.42857142857144" stroke="none" fill="hsla(0, 0%, 59%, 1.00)" rx="0.5"></rect><rect width="28.571428571428573" height="1" x="42.85714285714286" y="285.2142857142857" stroke="none" fill="hsla(0, 0%, 59%, 1.00)" rx="0.5"></rect><rect width="1" height="28.571428571428573" x="56.642857142857146" y="271.42857142857144" stroke="none" fill="hsla(0, 0%, 59%, 1.00)" rx="0.5"></rect><rect width="28.571428571428573" height="1" x="100" y="285.2142857142857" stroke="none" fill="hsla(0, 0%, 59%, 1.00)" rx="0.5"></rect><rect width="1" height="28.571428571428573" x="113.78571428571429" y="271.42857142857144" stroke="none" fill="hsla(0, 0%, 59%, 1.00)" rx="0.5"></rect><rect width="28.571428571428573" height="1" x="157.14285714285717" y="285.2142857142857" stroke="none" fill="hsla(0, 0%, 59%, 1.00)" rx="0.5"></rect><rect width="1" height="28.571428571428573" x="170.92857142857144" y="271.42857142857144" stroke="none" fill="hsla(0, 0%, 59%, 1.00)" rx="0.5"></rect><rect width="28.571428571428573" height="1" x="214.2857142857143" y="285.2142857142857" stroke="none" fill="hsla(0, 0%, 59%, 1.00)" rx="0.5"></rect><rect width="1" height="28.571428571428573" x="228.07142857142858" y="271.42857142857144" stroke="none" fill="hsla(0, 0%, 59%, 1.00)" rx="0.5"></rect><rect width="28.571428571428573" height="1" x="271.42857142857144" y="285.2142857142857" stroke="none" fill="hsla(0, 0%, 59%, 1.00)" rx="0.5"></rect><rect width="1" height="28.571428571428573" x="285.2142857142857" y="271.42857142857144" stroke="none" fill="hsla(0, 0%, 59%, 1.00)" rx="0.5"></rect><rect width="28.571428571428573" height="1" x="328.5714285714286" y="285.2142857142857" stroke="none" fill="hsla(0, 0%, 59%, 1.00)" rx="0.5"></rect><rect width="1" height="28.571428571428573" x="342.3571428571429" y="271.42857142857144" stroke="none" fill="hsla(0, 0%, 59%, 1.00)" rx="0.5"></rect><rect width="28.571428571428573" height="1" x="385.7142857142858" y="285.2142857142857" stroke="none" fill="hsla(0, 0%, 59%, 1.00)" rx="0.5"></rect><rect width="1" height="28.571428571428573" x="399.50000000000006" y="271.42857142857144" stroke="none" fill="hsla(0, 0%, 59%, 1.00)" rx="0.5"></rect><rect width="28.571428571428573" height="1" x="442.85714285714295" y="285.2142857142857" stroke="none" fill="hsla(0, 0%, 59%, 1.00)" rx="0.5"></rect><rect width="1" height="28.571428571428573" x="456.6428571428572" y="271.42857142857144" stroke="none" fill="hsla(0, 0%, 59%, 1.00)" rx="0.5"></rect><rect width="28.571428571428573" height="1" x="500.00000000000006" y="285.2142857142857" stroke="none" fill="hsla(0, 0%, 59%, 1.00)" rx="0.5"></rect><rect width="1" height="28.571428571428573" x="513.7857142857143" y="271.42857142857144" stroke="none" fill="hsla(0, 0%, 59%, 1.00)" rx="0.5"></rect><rect width="28.571428571428573" height="1" x="557.1428571428571" y="285.2142857142857" stroke="none" fill="hsla(0, 0%, 59%, 1.00)" rx="0.5"></rect><rect width="1" height="28.571428571428573" x="570.9285714285714" y="271.42857142857144" stroke="none" fill="hsla(0, 0%, 59%, 1.00)" rx="0.5"></rect><rect width="28.571428571428573" height="1" x="614.2857142857142" y="285.2142857142857" stroke="none" fill="hsla(0, 0%, 59%, 1.00)" rx="0.5"></rect><rect width="1" height="28.571428571428573" x="628.0714285714286" y="271.42857142857144" stroke="none" fill="hsla(0, 0%, 59%, 1.00)" rx="0.5"></rect><rect width="28.571428571428573" height="1" x="671.4285714285713" y="285.2142857142857" stroke="none" fill="hsla(0, 0%, 59%, 1.00)" rx="0.5"></rect><rect width="1" height="28.571428571428573" x="685.2142857142857" y="271.42857142857144" stroke="none" fill="hsla(0, 0%, 59%, 1.00)" rx="0.5"></rect><rect width="28.571428571428573" height="1" x="728.5714285714284" y="285.2142857142857" stroke="none" fill="hsla(0, 0%, 59%, 1.00)" rx="0.5"></rect><rect width="1" height="28.571428571428573" x="742.3571428571428" y="271.42857142857144" stroke="none" fill="hsla(0, 0%, 59%, 1.00)" rx="0.5"></rect><rect width="28.571428571428573" height="1" x="785.7142857142856" y="285.2142857142857" stroke="none" fill="hsla(0, 0%, 59%, 1.00)" rx="0.5"></rect><rect width="1" height="28.571428571428573" x="799.4999999999999" y="271.42857142857144" stroke="none" fill="hsla(0, 0%, 59%, 1.00)" rx="0.5"></rect><rect width="28.571428571428573" height="1" x="-14.285714285714286" y="342.3571428571429" stroke="none" fill="hsla(0, 0%, 59%, 1.00)" rx="0.5"></rect><rect width="1" height="28.571428571428573" x="-0.5" y="328.5714285714286" stroke="none" fill="hsla(0, 0%, 59%, 1.00)" rx="0.5"></rect><rect width="28.571428571428573" height="1" x="42.85714285714286" y="342.3571428571429" stroke="none" fill="hsla(0, 0%, 59%, 1.00)" rx="0.5"></rect><rect width="1" height="28.571428571428573" x="56.642857142857146" y="328.5714285714286" stroke="none" fill="hsla(0, 0%, 59%, 1.00)" rx="0.5"></rect><rect width="28.571428571428573" height="1" x="100" y="342.3571428571429" stroke="none" fill="hsla(0, 0%, 59%, 1.00)" rx="0.5"></rect><rect width="1" height="28.571428571428573" x="113.78571428571429" y="328.5714285714286" stroke="none" fill="hsla(0, 0%, 59%, 1.00)" rx="0.5"></rect><rect width="28.571428571428573" height="1" x="157.14285714285717" y="342.3571428571429" stroke="none" fill="hsla(0, 0%, 59%, 1.00)" rx="0.5"></rect><rect width="1" height="28.571428571428573" x="170.92857142857144" y="328.5714285714286" stroke="none" fill="hsla(0, 0%, 59%, 1.00)" rx="0.5"></rect><rect width="28.571428571428573" height="1" x="214.2857142857143" y="342.3571428571429" stroke="none" fill="hsla(0, 0%, 59%, 1.00)" rx="0.5"></rect><rect width="1" height="28.571428571428573" x="228.07142857142858" y="328.5714285714286" stroke="none" fill="hsla(0, 0%, 59%, 1.00)" rx="0.5"></rect><rect width="28.571428571428573" height="1" x="271.42857142857144" y="342.3571428571429" stroke="none" fill="hsla(0, 0%, 59%, 1.00)" rx="0.5"></rect><rect width="1" height="28.571428571428573" x="285.2142857142857" y="328.5714285714286" stroke="none" fill="hsla(0, 0%, 59%, 1.00)" rx="0.5"></rect><rect width="28.571428571428573" height="1" x="328.5714285714286" y="342.3571428571429" stroke="none" fill="hsla(0, 0%, 59%, 1.00)" rx="0.5"></rect><rect width="1" height="28.571428571428573" x="342.3571428571429" y="328.5714285714286" stroke="none" fill="hsla(0, 0%, 59%, 1.00)" rx="0.5"></rect><rect width="28.571428571428573" height="1" x="385.7142857142858" y="342.3571428571429" stroke="none" fill="hsla(0, 0%, 59%, 1.00)" rx="0.5"></rect><rect width="1" height="28.571428571428573" x="399.50000000000006" y="328.5714285714286" stroke="none" fill="hsla(0, 0%, 59%, 1.00)" rx="0.5"></rect><rect width="28.571428571428573" height="1" x="442.85714285714295" y="342.3571428571429" stroke="none" fill="hsla(0, 0%, 59%, 1.00)" rx="0.5"></rect><rect width="1" height="28.571428571428573" x="456.6428571428572" y="328.5714285714286" stroke="none" fill="hsla(0, 0%, 59%, 1.00)" rx="0.5"></rect><rect width="28.571428571428573" height="1" x="500.00000000000006" y="342.3571428571429" stroke="none" fill="hsla(0, 0%, 59%, 1.00)" rx="0.5"></rect><rect width="1" height="28.571428571428573" x="513.7857142857143" y="328.5714285714286" stroke="none" fill="hsla(0, 0%, 59%, 1.00)" rx="0.5"></rect><rect width="28.571428571428573" height="1" x="557.1428571428571" y="342.3571428571429" stroke="none" fill="hsla(0, 0%, 59%, 1.00)" rx="0.5"></rect><rect width="1" height="28.571428571428573" x="570.9285714285714" y="328.5714285714286" stroke="none" fill="hsla(0, 0%, 59%, 1.00)" rx="0.5"></rect><rect width="28.571428571428573" height="1" x="614.2857142857142" y="342.3571428571429" stroke="none" fill="hsla(0, 0%, 59%, 1.00)" rx="0.5"></rect><rect width="1" height="28.571428571428573" x="628.0714285714286" y="328.5714285714286" stroke="none" fill="hsla(0, 0%, 59%, 1.00)" rx="0.5"></rect><rect width="28.571428571428573" height="1" x="671.4285714285713" y="342.3571428571429" stroke="none" fill="hsla(0, 0%, 59%, 1.00)" rx="0.5"></rect><rect width="1" height="28.571428571428573" x="685.2142857142857" y="328.5714285714286" stroke="none" fill="hsla(0, 0%, 59%, 1.00)" rx="0.5"></rect><rect width="28.571428571428573" height="1" x="728.5714285714284" y="342.3571428571429" stroke="none" fill="hsla(0, 0%, 59%, 1.00)" rx="0.5"></rect><rect width="1" height="28.571428571428573" x="742.3571428571428" y="328.5714285714286" stroke="none" fill="hsla(0, 0%, 59%, 1.00)" rx="0.5"></rect><rect width="28.571428571428573" height="1" x="785.7142857142856" y="342.3571428571429" stroke="none" fill="hsla(0, 0%, 59%, 1.00)" rx="0.5"></rect><rect width="1" height="28.571428571428573" x="799.4999999999999" y="328.5714285714286" stroke="none" fill="hsla(0, 0%, 59%, 1.00)" rx="0.5"></rect><rect width="28.571428571428573" height="1" x="-14.285714285714286" y="399.50000000000006" stroke="none" fill="hsla(0, 0%, 59%, 1.00)" rx="0.5"></rect><rect width="1" height="28.571428571428573" x="-0.5" y="385.7142857142858" stroke="none" fill="hsla(0, 0%, 59%, 1.00)" rx="0.5"></rect><rect width="28.571428571428573" height="1" x="42.85714285714286" y="399.50000000000006" stroke="none" fill="hsla(0, 0%, 59%, 1.00)" rx="0.5"></rect><rect width="1" height="28.571428571428573" x="56.642857142857146" y="385.7142857142858" stroke="none" fill="hsla(0, 0%, 59%, 1.00)" rx="0.5"></rect><rect width="28.571428571428573" height="1" x="100" y="399.50000000000006" stroke="none" fill="hsla(0, 0%, 59%, 1.00)" rx="0.5"></rect><rect width="1" height="28.571428571428573" x="113.78571428571429" y="385.7142857142858" stroke="none" fill="hsla(0, 0%, 59%, 1.00)" rx="0.5"></rect><rect width="28.571428571428573" height="1" x="157.14285714285717" y="399.50000000000006" stroke="none" fill="hsla(0, 0%, 59%, 1.00)" rx="0.5"></rect><rect width="1" height="28.571428571428573" x="170.92857142857144" y="385.7142857142858" stroke="none" fill="hsla(0, 0%, 59%, 1.00)" rx="0.5"></rect><rect width="28.571428571428573" height="1" x="214.2857142857143" y="399.50000000000006" stroke="none" fill="hsla(0, 0%, 59%, 1.00)" rx="0.5"></rect><rect width="1" height="28.571428571428573" x="228.07142857142858" y="385.7142857142858" stroke="none" fill="hsla(0, 0%, 59%, 1.00)" rx="0.5"></rect><rect width="28.571428571428573" height="1" x="271.42857142857144" y="399.50000000000006" stroke="none" fill="hsla(0, 0%, 59%, 1.00)" rx="0.5"></rect><rect width="1" height="28.571428571428573" x="285.2142857142857" y="385.7142857142858" stroke="none" fill="hsla(0, 0%, 59%, 1.00)" rx="0.5"></rect><rect width="28.571428571428573" height="1" x="328.5714285714286" y="399.50000000000006" stroke="none" fill="hsla(0, 0%, 59%, 1.00)" rx="0.5"></rect><rect width="1" height="28.571428571428573" x="342.3571428571429" y="385.7142857142858" stroke="none" fill="hsla(0, 0%, 59%, 1.00)" rx="0.5"></rect><rect width="28.571428571428573" height="1" x="385.7142857142858" y="399.50000000000006" stroke="none" fill="hsla(0, 0%, 59%, 1.00)" rx="0.5"></rect><rect width="1" height="28.571428571428573" x="399.50000000000006" y="385.7142857142858" stroke="none" fill="hsla(0, 0%, 59%, 1.00)" rx="0.5"></rect><rect width="28.571428571428573" height="1" x="442.85714285714295" y="399.50000000000006" stroke="none" fill="hsla(0, 0%, 59%, 1.00)" rx="0.5"></rect><rect width="1" height="28.571428571428573" x="456.6428571428572" y="385.7142857142858" stroke="none" fill="hsla(0, 0%, 59%, 1.00)" rx="0.5"></rect><rect width="28.571428571428573" height="1" x="500.00000000000006" y="399.50000000000006" stroke="none" fill="hsla(0, 0%, 59%, 1.00)" rx="0.5"></rect><rect width="1" height="28.571428571428573" x="513.7857142857143" y="385.7142857142858" stroke="none" fill="hsla(0, 0%, 59%, 1.00)" rx="0.5"></rect><rect width="28.571428571428573" height="1" x="557.1428571428571" y="399.50000000000006" stroke="none" fill="hsla(0, 0%, 59%, 1.00)" rx="0.5"></rect><rect width="1" height="28.571428571428573" x="570.9285714285714" y="385.7142857142858" stroke="none" fill="hsla(0, 0%, 59%, 1.00)" rx="0.5"></rect><rect width="28.571428571428573" height="1" x="614.2857142857142" y="399.50000000000006" stroke="none" fill="hsla(0, 0%, 59%, 1.00)" rx="0.5"></rect><rect width="1" height="28.571428571428573" x="628.0714285714286" y="385.7142857142858" stroke="none" fill="hsla(0, 0%, 59%, 1.00)" rx="0.5"></rect><rect width="28.571428571428573" height="1" x="671.4285714285713" y="399.50000000000006" stroke="none" fill="hsla(0, 0%, 59%, 1.00)" rx="0.5"></rect><rect width="1" height="28.571428571428573" x="685.2142857142857" y="385.7142857142858" stroke="none" fill="hsla(0, 0%, 59%, 1.00)" rx="0.5"></rect><rect width="28.571428571428573" height="1" x="728.5714285714284" y="399.50000000000006" stroke="none" fill="hsla(0, 0%, 59%, 1.00)" rx="0.5"></rect><rect width="1" height="28.571428571428573" x="742.3571428571428" y="385.7142857142858" stroke="none" fill="hsla(0, 0%, 59%, 1.00)" rx="0.5"></rect><rect width="28.571428571428573" height="1" x="785.7142857142856" y="399.50000000000006" stroke="none" fill="hsla(0, 0%, 59%, 1.00)" rx="0.5"></rect><rect width="1" height="28.571428571428573" x="799.4999999999999" y="385.7142857142858" stroke="none" fill="hsla(0, 0%, 59%, 1.00)" rx="0.5"></rect><rect width="28.571428571428573" height="1" x="-14.285714285714286" y="456.6428571428572" stroke="none" fill="hsla(0, 0%, 59%, 1.00)" rx="0.5"></rect><rect width="1" height="28.571428571428573" x="-0.5" y="442.85714285714295" stroke="none" fill="hsla(0, 0%, 59%, 1.00)" rx="0.5"></rect><rect width="28.571428571428573" height="1" x="42.85714285714286" y="456.6428571428572" stroke="none" fill="hsla(0, 0%, 59%, 1.00)" rx="0.5"></rect><rect width="1" height="28.571428571428573" x="56.642857142857146" y="442.85714285714295" stroke="none" fill="hsla(0, 0%, 59%, 1.00)" rx="0.5"></rect><rect width="28.571428571428573" height="1" x="100" y="456.6428571428572" stroke="none" fill="hsla(0, 0%, 59%, 1.00)" rx="0.5"></rect><rect width="1" height="28.571428571428573" x="113.78571428571429" y="442.85714285714295" stroke="none" fill="hsla(0, 0%, 59%, 1.00)" rx="0.5"></rect><rect width="28.571428571428573" height="1" x="157.14285714285717" y="456.6428571428572" stroke="none" fill="hsla(0, 0%, 59%, 1.00)" rx="0.5"></rect><rect width="1" height="28.571428571428573" x="170.92857142857144" y="442.85714285714295" stroke="none" fill="hsla(0, 0%, 59%, 1.00)" rx="0.5"></rect><rect width="28.571428571428573" height="1" x="214.2857142857143" y="456.6428571428572" stroke="none" fill="hsla(0, 0%, 59%, 1.00)" rx="0.5"></rect><rect width="1" height="28.571428571428573" x="228.07142857142858" y="442.85714285714295" stroke="none" fill="hsla(0, 0%, 59%, 1.00)" rx="0.5"></rect><rect width="28.571428571428573" height="1" x="271.42857142857144" y="456.6428571428572" stroke="none" fill="hsla(0, 0%, 59%, 1.00)" rx="0.5"></rect><rect width="1" height="28.571428571428573" x="285.2142857142857" y="442.85714285714295" stroke="none" fill="hsla(0, 0%, 59%, 1.00)" rx="0.5"></rect><rect width="28.571428571428573" height="1" x="328.5714285714286" y="456.6428571428572" stroke="none" fill="hsla(0, 0%, 59%, 1.00)" rx="0.5"></rect><rect width="1" height="28.571428571428573" x="342.3571428571429" y="442.85714285714295" stroke="none" fill="hsla(0, 0%, 59%, 1.00)" rx="0.5"></rect><rect width="28.571428571428573" height="1" x="385.7142857142858" y="456.6428571428572" stroke="none" fill="hsla(0, 0%, 59%, 1.00)" rx="0.5"></rect><rect width="1" height="28.571428571428573" x="399.50000000000006" y="442.85714285714295" stroke="none" fill="hsla(0, 0%, 59%, 1.00)" rx="0.5"></rect><rect width="28.571428571428573" height="1" x="442.85714285714295" y="456.6428571428572" stroke="none" fill="hsla(0, 0%, 59%, 1.00)" rx="0.5"></rect><rect width="1" height="28.571428571428573" x="456.6428571428572" y="442.85714285714295" stroke="none" fill="hsla(0, 0%, 59%, 1.00)" rx="0.5"></rect><rect width="28.571428571428573" height="1" x="500.00000000000006" y="456.6428571428572" stroke="none" fill="hsla(0, 0%, 59%, 1.00)" rx="0.5"></rect><rect width="1" height="28.571428571428573" x="513.7857142857143" y="442.85714285714295" stroke="none" fill="hsla(0, 0%, 59%, 1.00)" rx="0.5"></rect><rect width="28.571428571428573" height="1" x="557.1428571428571" y="456.6428571428572" stroke="none" fill="hsla(0, 0%, 59%, 1.00)" rx="0.5"></rect><rect width="1" height="28.571428571428573" x="570.9285714285714" y="442.85714285714295" stroke="none" fill="hsla(0, 0%, 59%, 1.00)" rx="0.5"></rect><rect width="28.571428571428573" height="1" x="614.2857142857142" y="456.6428571428572" stroke="none" fill="hsla(0, 0%, 59%, 1.00)" rx="0.5"></rect><rect width="1" height="28.571428571428573" x="628.0714285714286" y="442.85714285714295" stroke="none" fill="hsla(0, 0%, 59%, 1.00)" rx="0.5"></rect><rect width="28.571428571428573" height="1" x="671.4285714285713" y="456.6428571428572" stroke="none" fill="hsla(0, 0%, 59%, 1.00)" rx="0.5"></rect><rect width="1" height="28.571428571428573" x="685.2142857142857" y="442.85714285714295" stroke="none" fill="hsla(0, 0%, 59%, 1.00)" rx="0.5"></rect><rect width="28.571428571428573" height="1" x="728.5714285714284" y="456.6428571428572" stroke="none" fill="hsla(0, 0%, 59%, 1.00)" rx="0.5"></rect><rect width="1" height="28.571428571428573" x="742.3571428571428" y="442.85714285714295" stroke="none" fill="hsla(0, 0%, 59%, 1.00)" rx="0.5"></rect><rect width="28.571428571428573" height="1" x="785.7142857142856" y="456.6428571428572" stroke="none" fill="hsla(0, 0%, 59%, 1.00)" rx="0.5"></rect><rect width="1" height="28.571428571428573" x="799.4999999999999" y="442.85714285714295" stroke="none" fill="hsla(0, 0%, 59%, 1.00)" rx="0.5"></rect><rect width="28.571428571428573" height="1" x="-14.285714285714286" y="513.7857142857143" stroke="none" fill="hsla(0, 0%, 59%, 1.00)" rx="0.5"></rect><rect width="1" height="28.571428571428573" x="-0.5" y="500.00000000000006" stroke="none" fill="hsla(0, 0%, 59%, 1.00)" rx="0.5"></rect><rect width="28.571428571428573" height="1" x="42.85714285714286" y="513.7857142857143" stroke="none" fill="hsla(0, 0%, 59%, 1.00)" rx="0.5"></rect><rect width="1" height="28.571428571428573" x="56.642857142857146" y="500.00000000000006" stroke="none" fill="hsla(0, 0%, 59%, 1.00)" rx="0.5"></rect><rect width="28.571428571428573" height="1" x="100" y="513.7857142857143" stroke="none" fill="hsla(0, 0%, 59%, 1.00)" rx="0.5"></rect><rect width="1" height="28.571428571428573" x="113.78571428571429" y="500.00000000000006" stroke="none" fill="hsla(0, 0%, 59%, 1.00)" rx="0.5"></rect><rect width="28.571428571428573" height="1" x="157.14285714285717" y="513.7857142857143" stroke="none" fill="hsla(0, 0%, 59%, 1.00)" rx="0.5"></rect><rect width="1" height="28.571428571428573" x="170.92857142857144" y="500.00000000000006" stroke="none" fill="hsla(0, 0%, 59%, 1.00)" rx="0.5"></rect><rect width="28.571428571428573" height="1" x="214.2857142857143" y="513.7857142857143" stroke="none" fill="hsla(0, 0%, 59%, 1.00)" rx="0.5"></rect><rect width="1" height="28.571428571428573" x="228.07142857142858" y="500.00000000000006" stroke="none" fill="hsla(0, 0%, 59%, 1.00)" rx="0.5"></rect><rect width="28.571428571428573" height="1" x="271.42857142857144" y="513.7857142857143" stroke="none" fill="hsla(0, 0%, 59%, 1.00)" rx="0.5"></rect><rect width="1" height="28.571428571428573" x="285.2142857142857" y="500.00000000000006" stroke="none" fill="hsla(0, 0%, 59%, 1.00)" rx="0.5"></rect><rect width="28.571428571428573" height="1" x="328.5714285714286" y="513.7857142857143" stroke="none" fill="hsla(0, 0%, 59%, 1.00)" rx="0.5"></rect><rect width="1" height="28.571428571428573" x="342.3571428571429" y="500.00000000000006" stroke="none" fill="hsla(0, 0%, 59%, 1.00)" rx="0.5"></rect><rect width="28.571428571428573" height="1" x="385.7142857142858" y="513.7857142857143" stroke="none" fill="hsla(0, 0%, 59%, 1.00)" rx="0.5"></rect><rect width="1" height="28.571428571428573" x="399.50000000000006" y="500.00000000000006" stroke="none" fill="hsla(0, 0%, 59%, 1.00)" rx="0.5"></rect><rect width="28.571428571428573" height="1" x="442.85714285714295" y="513.7857142857143" stroke="none" fill="hsla(0, 0%, 59%, 1.00)" rx="0.5"></rect><rect width="1" height="28.571428571428573" x="456.6428571428572" y="500.00000000000006" stroke="none" fill="hsla(0, 0%, 59%, 1.00)" rx="0.5"></rect><rect width="28.571428571428573" height="1" x="500.00000000000006" y="513.7857142857143" stroke="none" fill="hsla(0, 0%, 59%, 1.00)" rx="0.5"></rect><rect width="1" height="28.571428571428573" x="513.7857142857143" y="500.00000000000006" stroke="none" fill="hsla(0, 0%, 59%, 1.00)" rx="0.5"></rect><rect width="28.571428571428573" height="1" x="557.1428571428571" y="513.7857142857143" stroke="none" fill="hsla(0, 0%, 59%, 1.00)" rx="0.5"></rect><rect width="1" height="28.571428571428573" x="570.9285714285714" y="500.00000000000006" stroke="none" fill="hsla(0, 0%, 59%, 1.00)" rx="0.5"></rect><rect width="28.571428571428573" height="1" x="614.2857142857142" y="513.7857142857143" stroke="none" fill="hsla(0, 0%, 59%, 1.00)" rx="0.5"></rect><rect width="1" height="28.571428571428573" x="628.0714285714286" y="500.00000000000006" stroke="none" fill="hsla(0, 0%, 59%, 1.00)" rx="0.5"></rect><rect width="28.571428571428573" height="1" x="671.4285714285713" y="513.7857142857143" stroke="none" fill="hsla(0, 0%, 59%, 1.00)" rx="0.5"></rect><rect width="1" height="28.571428571428573" x="685.2142857142857" y="500.00000000000006" stroke="none" fill="hsla(0, 0%, 59%, 1.00)" rx="0.5"></rect><rect width="28.571428571428573" height="1" x="728.5714285714284" y="513.7857142857143" stroke="none" fill="hsla(0, 0%, 59%, 1.00)" rx="0.5"></rect><rect width="1" height="28.571428571428573" x="742.3571428571428" y="500.00000000000006" stroke="none" fill="hsla(0, 0%, 59%, 1.00)" rx="0.5"></rect><rect width="28.571428571428573" height="1" x="785.7142857142856" y="513.7857142857143" stroke="none" fill="hsla(0, 0%, 59%, 1.00)" rx="0.5"></rect><rect width="1" height="28.571428571428573" x="799.4999999999999" y="500.00000000000006" stroke="none" fill="hsla(0, 0%, 59%, 1.00)" rx="0.5"></rect><rect width="28.571428571428573" height="1" x="-14.285714285714286" y="570.9285714285714" stroke="none" fill="hsla(0, 0%, 59%, 1.00)" rx="0.5"></rect><rect width="1" height="28.571428571428573" x="-0.5" y="557.1428571428571" stroke="none" fill="hsla(0, 0%, 59%, 1.00)" rx="0.5"></rect><rect width="28.571428571428573" height="1" x="42.85714285714286" y="570.9285714285714" stroke="none" fill="hsla(0, 0%, 59%, 1.00)" rx="0.5"></rect><rect width="1" height="28.571428571428573" x="56.642857142857146" y="557.1428571428571" stroke="none" fill="hsla(0, 0%, 59%, 1.00)" rx="0.5"></rect><rect width="28.571428571428573" height="1" x="100" y="570.9285714285714" stroke="none" fill="hsla(0, 0%, 59%, 1.00)" rx="0.5"></rect><rect width="1" height="28.571428571428573" x="113.78571428571429" y="557.1428571428571" stroke="none" fill="hsla(0, 0%, 59%, 1.00)" rx="0.5"></rect><rect width="28.571428571428573" height="1" x="157.14285714285717" y="570.9285714285714" stroke="none" fill="hsla(0, 0%, 59%, 1.00)" rx="0.5"></rect><rect width="1" height="28.571428571428573" x="170.92857142857144" y="557.1428571428571" stroke="none" fill="hsla(0, 0%, 59%, 1.00)" rx="0.5"></rect><rect width="28.571428571428573" height="1" x="214.2857142857143" y="570.9285714285714" stroke="none" fill="hsla(0, 0%, 59%, 1.00)" rx="0.5"></rect><rect width="1" height="28.571428571428573" x="228.07142857142858" y="557.1428571428571" stroke="none" fill="hsla(0, 0%, 59%, 1.00)" rx="0.5"></rect><rect width="28.571428571428573" height="1" x="271.42857142857144" y="570.9285714285714" stroke="none" fill="hsla(0, 0%, 59%, 1.00)" rx="0.5"></rect><rect width="1" height="28.571428571428573" x="285.2142857142857" y="557.1428571428571" stroke="none" fill="hsla(0, 0%, 59%, 1.00)" rx="0.5"></rect><rect width="28.571428571428573" height="1" x="328.5714285714286" y="570.9285714285714" stroke="none" fill="hsla(0, 0%, 59%, 1.00)" rx="0.5"></rect><rect width="1" height="28.571428571428573" x="342.3571428571429" y="557.1428571428571" stroke="none" fill="hsla(0, 0%, 59%, 1.00)" rx="0.5"></rect><rect width="28.571428571428573" height="1" x="385.7142857142858" y="570.9285714285714" stroke="none" fill="hsla(0, 0%, 59%, 1.00)" rx="0.5"></rect><rect width="1" height="28.571428571428573" x="399.50000000000006" y="557.1428571428571" stroke="none" fill="hsla(0, 0%, 59%, 1.00)" rx="0.5"></rect><rect width="28.571428571428573" height="1" x="442.85714285714295" y="570.9285714285714" stroke="none" fill="hsla(0, 0%, 59%, 1.00)" rx="0.5"></rect><rect width="1" height="28.571428571428573" x="456.6428571428572" y="557.1428571428571" stroke="none" fill="hsla(0, 0%, 59%, 1.00)" rx="0.5"></rect><rect width="28.571428571428573" height="1" x="500.00000000000006" y="570.9285714285714" stroke="none" fill="hsla(0, 0%, 59%, 1.00)" rx="0.5"></rect><rect width="1" height="28.571428571428573" x="513.7857142857143" y="557.1428571428571" stroke="none" fill="hsla(0, 0%, 59%, 1.00)" rx="0.5"></rect><rect width="28.571428571428573" height="1" x="557.1428571428571" y="570.9285714285714" stroke="none" fill="hsla(0, 0%, 59%, 1.00)" rx="0.5"></rect><rect width="1" height="28.571428571428573" x="570.9285714285714" y="557.1428571428571" stroke="none" fill="hsla(0, 0%, 59%, 1.00)" rx="0.5"></rect><rect width="28.571428571428573" height="1" x="614.2857142857142" y="570.9285714285714" stroke="none" fill="hsla(0, 0%, 59%, 1.00)" rx="0.5"></rect><rect width="1" height="28.571428571428573" x="628.0714285714286" y="557.1428571428571" stroke="none" fill="hsla(0, 0%, 59%, 1.00)" rx="0.5"></rect><rect width="28.571428571428573" height="1" x="671.4285714285713" y="570.9285714285714" stroke="none" fill="hsla(0, 0%, 59%, 1.00)" rx="0.5"></rect><rect width="1" height="28.571428571428573" x="685.2142857142857" y="557.1428571428571" stroke="none" fill="hsla(0, 0%, 59%, 1.00)" rx="0.5"></rect><rect width="28.571428571428573" height="1" x="728.5714285714284" y="570.9285714285714" stroke="none" fill="hsla(0, 0%, 59%, 1.00)" rx="0.5"></rect><rect width="1" height="28.571428571428573" x="742.3571428571428" y="557.1428571428571" stroke="none" fill="hsla(0, 0%, 59%, 1.00)" rx="0.5"></rect><rect width="28.571428571428573" height="1" x="785.7142857142856" y="570.9285714285714" stroke="none" fill="hsla(0, 0%, 59%, 1.00)" rx="0.5"></rect><rect width="1" height="28.571428571428573" x="799.4999999999999" y="557.1428571428571" stroke="none" fill="hsla(0, 0%, 59%, 1.00)" rx="0.5"></rect><rect width="28.571428571428573" height="1" x="-14.285714285714286" y="628.0714285714286" stroke="none" fill="hsla(0, 0%, 59%, 1.00)" rx="0.5"></rect><rect width="1" height="28.571428571428573" x="-0.5" y="614.2857142857142" stroke="none" fill="hsla(0, 0%, 59%, 1.00)" rx="0.5"></rect><rect width="28.571428571428573" height="1" x="42.85714285714286" y="628.0714285714286" stroke="none" fill="hsla(0, 0%, 59%, 1.00)" rx="0.5"></rect><rect width="1" height="28.571428571428573" x="56.642857142857146" y="614.2857142857142" stroke="none" fill="hsla(0, 0%, 59%, 1.00)" rx="0.5"></rect><rect width="28.571428571428573" height="1" x="100" y="628.0714285714286" stroke="none" fill="hsla(0, 0%, 59%, 1.00)" rx="0.5"></rect><rect width="1" height="28.571428571428573" x="113.78571428571429" y="614.2857142857142" stroke="none" fill="hsla(0, 0%, 59%, 1.00)" rx="0.5"></rect><rect width="28.571428571428573" height="1" x="157.14285714285717" y="628.0714285714286" stroke="none" fill="hsla(0, 0%, 59%, 1.00)" rx="0.5"></rect><rect width="1" height="28.571428571428573" x="170.92857142857144" y="614.2857142857142" stroke="none" fill="hsla(0, 0%, 59%, 1.00)" rx="0.5"></rect><rect width="28.571428571428573" height="1" x="214.2857142857143" y="628.0714285714286" stroke="none" fill="hsla(0, 0%, 59%, 1.00)" rx="0.5"></rect><rect width="1" height="28.571428571428573" x="228.07142857142858" y="614.2857142857142" stroke="none" fill="hsla(0, 0%, 59%, 1.00)" rx="0.5"></rect><rect width="28.571428571428573" height="1" x="271.42857142857144" y="628.0714285714286" stroke="none" fill="hsla(0, 0%, 59%, 1.00)" rx="0.5"></rect><rect width="1" height="28.571428571428573" x="285.2142857142857" y="614.2857142857142" stroke="none" fill="hsla(0, 0%, 59%, 1.00)" rx="0.5"></rect><rect width="28.571428571428573" height="1" x="328.5714285714286" y="628.0714285714286" stroke="none" fill="hsla(0, 0%, 59%, 1.00)" rx="0.5"></rect><rect width="1" height="28.571428571428573" x="342.3571428571429" y="614.2857142857142" stroke="none" fill="hsla(0, 0%, 59%, 1.00)" rx="0.5"></rect><rect width="28.571428571428573" height="1" x="385.7142857142858" y="628.0714285714286" stroke="none" fill="hsla(0, 0%, 59%, 1.00)" rx="0.5"></rect><rect width="1" height="28.571428571428573" x="399.50000000000006" y="614.2857142857142" stroke="none" fill="hsla(0, 0%, 59%, 1.00)" rx="0.5"></rect><rect width="28.571428571428573" height="1" x="442.85714285714295" y="628.0714285714286" stroke="none" fill="hsla(0, 0%, 59%, 1.00)" rx="0.5"></rect><rect width="1" height="28.571428571428573" x="456.6428571428572" y="614.2857142857142" stroke="none" fill="hsla(0, 0%, 59%, 1.00)" rx="0.5"></rect><rect width="28.571428571428573" height="1" x="500.00000000000006" y="628.0714285714286" stroke="none" fill="hsla(0, 0%, 59%, 1.00)" rx="0.5"></rect><rect width="1" height="28.571428571428573" x="513.7857142857143" y="614.2857142857142" stroke="none" fill="hsla(0, 0%, 59%, 1.00)" rx="0.5"></rect><rect width="28.571428571428573" height="1" x="557.1428571428571" y="628.0714285714286" stroke="none" fill="hsla(0, 0%, 59%, 1.00)" rx="0.5"></rect><rect width="1" height="28.571428571428573" x="570.9285714285714" y="614.2857142857142" stroke="none" fill="hsla(0, 0%, 59%, 1.00)" rx="0.5"></rect><rect width="28.571428571428573" height="1" x="614.2857142857142" y="628.0714285714286" stroke="none" fill="hsla(0, 0%, 59%, 1.00)" rx="0.5"></rect><rect width="1" height="28.571428571428573" x="628.0714285714286" y="614.2857142857142" stroke="none" fill="hsla(0, 0%, 59%, 1.00)" rx="0.5"></rect><rect width="28.571428571428573" height="1" x="671.4285714285713" y="628.0714285714286" stroke="none" fill="hsla(0, 0%, 59%, 1.00)" rx="0.5"></rect><rect width="1" height="28.571428571428573" x="685.2142857142857" y="614.2857142857142" stroke="none" fill="hsla(0, 0%, 59%, 1.00)" rx="0.5"></rect><rect width="28.571428571428573" height="1" x="728.5714285714284" y="628.0714285714286" stroke="none" fill="hsla(0, 0%, 59%, 1.00)" rx="0.5"></rect><rect width="1" height="28.571428571428573" x="742.3571428571428" y="614.2857142857142" stroke="none" fill="hsla(0, 0%, 59%, 1.00)" rx="0.5"></rect><rect width="28.571428571428573" height="1" x="785.7142857142856" y="628.0714285714286" stroke="none" fill="hsla(0, 0%, 59%, 1.00)" rx="0.5"></rect><rect width="1" height="28.571428571428573" x="799.4999999999999" y="614.2857142857142" stroke="none" fill="hsla(0, 0%, 59%, 1.00)" rx="0.5"></rect><rect width="28.571428571428573" height="1" x="-14.285714285714286" y="685.2142857142857" stroke="none" fill="hsla(0, 0%, 59%, 1.00)" rx="0.5"></rect><rect width="1" height="28.571428571428573" x="-0.5" y="671.4285714285713" stroke="none" fill="hsla(0, 0%, 59%, 1.00)" rx="0.5"></rect><rect width="28.571428571428573" height="1" x="42.85714285714286" y="685.2142857142857" stroke="none" fill="hsla(0, 0%, 59%, 1.00)" rx="0.5"></rect><rect width="1" height="28.571428571428573" x="56.642857142857146" y="671.4285714285713" stroke="none" fill="hsla(0, 0%, 59%, 1.00)" rx="0.5"></rect><rect width="28.571428571428573" height="1" x="100" y="685.2142857142857" stroke="none" fill="hsla(0, 0%, 59%, 1.00)" rx="0.5"></rect><rect width="1" height="28.571428571428573" x="113.78571428571429" y="671.4285714285713" stroke="none" fill="hsla(0, 0%, 59%, 1.00)" rx="0.5"></rect><rect width="28.571428571428573" height="1" x="157.14285714285717" y="685.2142857142857" stroke="none" fill="hsla(0, 0%, 59%, 1.00)" rx="0.5"></rect><rect width="1" height="28.571428571428573" x="170.92857142857144" y="671.4285714285713" stroke="none" fill="hsla(0, 0%, 59%, 1.00)" rx="0.5"></rect><rect width="28.571428571428573" height="1" x="214.2857142857143" y="685.2142857142857" stroke="none" fill="hsla(0, 0%, 59%, 1.00)" rx="0.5"></rect><rect width="1" height="28.571428571428573" x="228.07142857142858" y="671.4285714285713" stroke="none" fill="hsla(0, 0%, 59%, 1.00)" rx="0.5"></rect><rect width="28.571428571428573" height="1" x="271.42857142857144" y="685.2142857142857" stroke="none" fill="hsla(0, 0%, 59%, 1.00)" rx="0.5"></rect><rect width="1" height="28.571428571428573" x="285.2142857142857" y="671.4285714285713" stroke="none" fill="hsla(0, 0%, 59%, 1.00)" rx="0.5"></rect><rect width="28.571428571428573" height="1" x="328.5714285714286" y="685.2142857142857" stroke="none" fill="hsla(0, 0%, 59%, 1.00)" rx="0.5"></rect><rect width="1" height="28.571428571428573" x="342.3571428571429" y="671.4285714285713" stroke="none" fill="hsla(0, 0%, 59%, 1.00)" rx="0.5"></rect><rect width="28.571428571428573" height="1" x="385.7142857142858" y="685.2142857142857" stroke="none" fill="hsla(0, 0%, 59%, 1.00)" rx="0.5"></rect><rect width="1" height="28.571428571428573" x="399.50000000000006" y="671.4285714285713" stroke="none" fill="hsla(0, 0%, 59%, 1.00)" rx="0.5"></rect><rect width="28.571428571428573" height="1" x="442.85714285714295" y="685.2142857142857" stroke="none" fill="hsla(0, 0%, 59%, 1.00)" rx="0.5"></rect><rect width="1" height="28.571428571428573" x="456.6428571428572" y="671.4285714285713" stroke="none" fill="hsla(0, 0%, 59%, 1.00)" rx="0.5"></rect><rect width="28.571428571428573" height="1" x="500.00000000000006" y="685.2142857142857" stroke="none" fill="hsla(0, 0%, 59%, 1.00)" rx="0.5"></rect><rect width="1" height="28.571428571428573" x="513.7857142857143" y="671.4285714285713" stroke="none" fill="hsla(0, 0%, 59%, 1.00)" rx="0.5"></rect><rect width="28.571428571428573" height="1" x="557.1428571428571" y="685.2142857142857" stroke="none" fill="hsla(0, 0%, 59%, 1.00)" rx="0.5"></rect><rect width="1" height="28.571428571428573" x="570.9285714285714" y="671.4285714285713" stroke="none" fill="hsla(0, 0%, 59%, 1.00)" rx="0.5"></rect><rect width="28.571428571428573" height="1" x="614.2857142857142" y="685.2142857142857" stroke="none" fill="hsla(0, 0%, 59%, 1.00)" rx="0.5"></rect><rect width="1" height="28.571428571428573" x="628.0714285714286" y="671.4285714285713" stroke="none" fill="hsla(0, 0%, 59%, 1.00)" rx="0.5"></rect><rect width="28.571428571428573" height="1" x="671.4285714285713" y="685.2142857142857" stroke="none" fill="hsla(0, 0%, 59%, 1.00)" rx="0.5"></rect><rect width="1" height="28.571428571428573" x="685.2142857142857" y="671.4285714285713" stroke="none" fill="hsla(0, 0%, 59%, 1.00)" rx="0.5"></rect><rect width="28.571428571428573" height="1" x="728.5714285714284" y="685.2142857142857" stroke="none" fill="hsla(0, 0%, 59%, 1.00)" rx="0.5"></rect><rect width="1" height="28.571428571428573" x="742.3571428571428" y="671.4285714285713" stroke="none" fill="hsla(0, 0%, 59%, 1.00)" rx="0.5"></rect><rect width="28.571428571428573" height="1" x="785.7142857142856" y="685.2142857142857" stroke="none" fill="hsla(0, 0%, 59%, 1.00)" rx="0.5"></rect><rect width="1" height="28.571428571428573" x="799.4999999999999" y="671.4285714285713" stroke="none" fill="hsla(0, 0%, 59%, 1.00)" rx="0.5"></rect><rect width="28.571428571428573" height="1" x="-14.285714285714286" y="742.3571428571428" stroke="none" fill="hsla(0, 0%, 59%, 1.00)" rx="0.5"></rect><rect width="1" height="28.571428571428573" x="-0.5" y="728.5714285714284" stroke="none" fill="hsla(0, 0%, 59%, 1.00)" rx="0.5"></rect><rect width="28.571428571428573" height="1" x="42.85714285714286" y="742.3571428571428" stroke="none" fill="hsla(0, 0%, 59%, 1.00)" rx="0.5"></rect><rect width="1" height="28.571428571428573" x="56.642857142857146" y="728.5714285714284" stroke="none" fill="hsla(0, 0%, 59%, 1.00)" rx="0.5"></rect><rect width="28.571428571428573" height="1" x="100" y="742.3571428571428" stroke="none" fill="hsla(0, 0%, 59%, 1.00)" rx="0.5"></rect><rect width="1" height="28.571428571428573" x="113.78571428571429" y="728.5714285714284" stroke="none" fill="hsla(0, 0%, 59%, 1.00)" rx="0.5"></rect><rect width="28.571428571428573" height="1" x="157.14285714285717" y="742.3571428571428" stroke="none" fill="hsla(0, 0%, 59%, 1.00)" rx="0.5"></rect><rect width="1" height="28.571428571428573" x="170.92857142857144" y="728.5714285714284" stroke="none" fill="hsla(0, 0%, 59%, 1.00)" rx="0.5"></rect><rect width="28.571428571428573" height="1" x="214.2857142857143" y="742.3571428571428" stroke="none" fill="hsla(0, 0%, 59%, 1.00)" rx="0.5"></rect><rect width="1" height="28.571428571428573" x="228.07142857142858" y="728.5714285714284" stroke="none" fill="hsla(0, 0%, 59%, 1.00)" rx="0.5"></rect><rect width="28.571428571428573" height="1" x="271.42857142857144" y="742.3571428571428" stroke="none" fill="hsla(0, 0%, 59%, 1.00)" rx="0.5"></rect><rect width="1" height="28.571428571428573" x="285.2142857142857" y="728.5714285714284" stroke="none" fill="hsla(0, 0%, 59%, 1.00)" rx="0.5"></rect><rect width="28.571428571428573" height="1" x="328.5714285714286" y="742.3571428571428" stroke="none" fill="hsla(0, 0%, 59%, 1.00)" rx="0.5"></rect><rect width="1" height="28.571428571428573" x="342.3571428571429" y="728.5714285714284" stroke="none" fill="hsla(0, 0%, 59%, 1.00)" rx="0.5"></rect><rect width="28.571428571428573" height="1" x="385.7142857142858" y="742.3571428571428" stroke="none" fill="hsla(0, 0%, 59%, 1.00)" rx="0.5"></rect><rect width="1" height="28.571428571428573" x="399.50000000000006" y="728.5714285714284" stroke="none" fill="hsla(0, 0%, 59%, 1.00)" rx="0.5"></rect><rect width="28.571428571428573" height="1" x="442.85714285714295" y="742.3571428571428" stroke="none" fill="hsla(0, 0%, 59%, 1.00)" rx="0.5"></rect><rect width="1" height="28.571428571428573" x="456.6428571428572" y="728.5714285714284" stroke="none" fill="hsla(0, 0%, 59%, 1.00)" rx="0.5"></rect><rect width="28.571428571428573" height="1" x="500.00000000000006" y="742.3571428571428" stroke="none" fill="hsla(0, 0%, 59%, 1.00)" rx="0.5"></rect><rect width="1" height="28.571428571428573" x="513.7857142857143" y="728.5714285714284" stroke="none" fill="hsla(0, 0%, 59%, 1.00)" rx="0.5"></rect><rect width="28.571428571428573" height="1" x="557.1428571428571" y="742.3571428571428" stroke="none" fill="hsla(0, 0%, 59%, 1.00)" rx="0.5"></rect><rect width="1" height="28.571428571428573" x="570.9285714285714" y="728.5714285714284" stroke="none" fill="hsla(0, 0%, 59%, 1.00)" rx="0.5"></rect><rect width="28.571428571428573" height="1" x="614.2857142857142" y="742.3571428571428" stroke="none" fill="hsla(0, 0%, 59%, 1.00)" rx="0.5"></rect><rect width="1" height="28.571428571428573" x="628.0714285714286" y="728.5714285714284" stroke="none" fill="hsla(0, 0%, 59%, 1.00)" rx="0.5"></rect><rect width="28.571428571428573" height="1" x="671.4285714285713" y="742.3571428571428" stroke="none" fill="hsla(0, 0%, 59%, 1.00)" rx="0.5"></rect><rect width="1" height="28.571428571428573" x="685.2142857142857" y="728.5714285714284" stroke="none" fill="hsla(0, 0%, 59%, 1.00)" rx="0.5"></rect><rect width="28.571428571428573" height="1" x="728.5714285714284" y="742.3571428571428" stroke="none" fill="hsla(0, 0%, 59%, 1.00)" rx="0.5"></rect><rect width="1" height="28.571428571428573" x="742.3571428571428" y="728.5714285714284" stroke="none" fill="hsla(0, 0%, 59%, 1.00)" rx="0.5"></rect><rect width="28.571428571428573" height="1" x="785.7142857142856" y="742.3571428571428" stroke="none" fill="hsla(0, 0%, 59%, 1.00)" rx="0.5"></rect><rect width="1" height="28.571428571428573" x="799.4999999999999" y="728.5714285714284" stroke="none" fill="hsla(0, 0%, 59%, 1.00)" rx="0.5"></rect><rect width="28.571428571428573" height="1" x="-14.285714285714286" y="799.4999999999999" stroke="none" fill="hsla(0, 0%, 59%, 1.00)" rx="0.5"></rect><rect width="1" height="28.571428571428573" x="-0.5" y="785.7142857142856" stroke="none" fill="hsla(0, 0%, 59%, 1.00)" rx="0.5"></rect><rect width="28.571428571428573" height="1" x="42.85714285714286" y="799.4999999999999" stroke="none" fill="hsla(0, 0%, 59%, 1.00)" rx="0.5"></rect><rect width="1" height="28.571428571428573" x="56.642857142857146" y="785.7142857142856" stroke="none" fill="hsla(0, 0%, 59%, 1.00)" rx="0.5"></rect><rect width="28.571428571428573" height="1" x="100" y="799.4999999999999" stroke="none" fill="hsla(0, 0%, 59%, 1.00)" rx="0.5"></rect><rect width="1" height="28.571428571428573" x="113.78571428571429" y="785.7142857142856" stroke="none" fill="hsla(0, 0%, 59%, 1.00)" rx="0.5"></rect><rect width="28.571428571428573" height="1" x="157.14285714285717" y="799.4999999999999" stroke="none" fill="hsla(0, 0%, 59%, 1.00)" rx="0.5"></rect><rect width="1" height="28.571428571428573" x="170.92857142857144" y="785.7142857142856" stroke="none" fill="hsla(0, 0%, 59%, 1.00)" rx="0.5"></rect><rect width="28.571428571428573" height="1" x="214.2857142857143" y="799.4999999999999" stroke="none" fill="hsla(0, 0%, 59%, 1.00)" rx="0.5"></rect><rect width="1" height="28.571428571428573" x="228.07142857142858" y="785.7142857142856" stroke="none" fill="hsla(0, 0%, 59%, 1.00)" rx="0.5"></rect><rect width="28.571428571428573" height="1" x="271.42857142857144" y="799.4999999999999" stroke="none" fill="hsla(0, 0%, 59%, 1.00)" rx="0.5"></rect><rect width="1" height="28.571428571428573" x="285.2142857142857" y="785.7142857142856" stroke="none" fill="hsla(0, 0%, 59%, 1.00)" rx="0.5"></rect><rect width="28.571428571428573" height="1" x="328.5714285714286" y="799.4999999999999" stroke="none" fill="hsla(0, 0%, 59%, 1.00)" rx="0.5"></rect><rect width="1" height="28.571428571428573" x="342.3571428571429" y="785.7142857142856" stroke="none" fill="hsla(0, 0%, 59%, 1.00)" rx="0.5"></rect><rect width="28.571428571428573" height="1" x="385.7142857142858" y="799.4999999999999" stroke="none" fill="hsla(0, 0%, 59%, 1.00)" rx="0.5"></rect><rect width="1" height="28.571428571428573" x="399.50000000000006" y="785.7142857142856" stroke="none" fill="hsla(0, 0%, 59%, 1.00)" rx="0.5"></rect><rect width="28.571428571428573" height="1" x="442.85714285714295" y="799.4999999999999" stroke="none" fill="hsla(0, 0%, 59%, 1.00)" rx="0.5"></rect><rect width="1" height="28.571428571428573" x="456.6428571428572" y="785.7142857142856" stroke="none" fill="hsla(0, 0%, 59%, 1.00)" rx="0.5"></rect><rect width="28.571428571428573" height="1" x="500.00000000000006" y="799.4999999999999" stroke="none" fill="hsla(0, 0%, 59%, 1.00)" rx="0.5"></rect><rect width="1" height="28.571428571428573" x="513.7857142857143" y="785.7142857142856" stroke="none" fill="hsla(0, 0%, 59%, 1.00)" rx="0.5"></rect><rect width="28.571428571428573" height="1" x="557.1428571428571" y="799.4999999999999" stroke="none" fill="hsla(0, 0%, 59%, 1.00)" rx="0.5"></rect><rect width="1" height="28.571428571428573" x="570.9285714285714" y="785.7142857142856" stroke="none" fill="hsla(0, 0%, 59%, 1.00)" rx="0.5"></rect><rect width="28.571428571428573" height="1" x="614.2857142857142" y="799.4999999999999" stroke="none" fill="hsla(0, 0%, 59%, 1.00)" rx="0.5"></rect><rect width="1" height="28.571428571428573" x="628.0714285714286" y="785.7142857142856" stroke="none" fill="hsla(0, 0%, 59%, 1.00)" rx="0.5"></rect><rect width="28.571428571428573" height="1" x="671.4285714285713" y="799.4999999999999" stroke="none" fill="hsla(0, 0%, 59%, 1.00)" rx="0.5"></rect><rect width="1" height="28.571428571428573" x="685.2142857142857" y="785.7142857142856" stroke="none" fill="hsla(0, 0%, 59%, 1.00)" rx="0.5"></rect><rect width="28.571428571428573" height="1" x="728.5714285714284" y="799.4999999999999" stroke="none" fill="hsla(0, 0%, 59%, 1.00)" rx="0.5"></rect><rect width="1" height="28.571428571428573" x="742.3571428571428" y="785.7142857142856" stroke="none" fill="hsla(0, 0%, 59%, 1.00)" rx="0.5"></rect><rect width="28.571428571428573" height="1" x="785.7142857142856" y="799.4999999999999" stroke="none" fill="hsla(0, 0%, 59%, 1.00)" rx="0.5"></rect><rect width="1" height="28.571428571428573" x="799.4999999999999" y="785.7142857142856" stroke="none" fill="hsla(0, 0%, 59%, 1.00)" rx="0.5"></rect></g></svg>